<svg height="512pt" viewBox="0 -18 512 512" width="512pt" xmlns="http://www.w3.org/2000/svg"><path d="m496.339844 63.601562v267.410157c0 26.859375-21.78125 48.628906-48.628906 48.628906h-383.421876c-26.847656 0-48.628906-21.769531-48.628906-48.628906v-267.410157c0-26.863281 21.78125-48.632812 48.628906-48.632812h383.421876c26.847656 0 48.628906 21.769531 48.628906 48.632812zm0 0" fill="#fff5ea"/><path d="m496.339844 63.601562v267.410157c0 26.859375-21.78125 48.628906-48.628906 48.628906h-191.710938v-364.671875h191.710938c26.847656 0 48.628906 21.769531 48.628906 48.632812zm0 0" fill="#f2e1df"/><path d="m447.28125 0h-382.5625c-35.6875 0-64.71875 29-64.71875 64.660156v265.289063c0 35.652343 29.03125 64.660156 64.71875 64.660156h20.800781c10.859375 0 19.660157 8.800781 19.660157 19.660156 0 12.03125 4.878906 22.929688 12.761718 30.820313 7.886719 7.890625 18.789063 12.769531 30.828125 12.769531h214.460938c24.078125 0 43.589843-19.519531 43.589843-43.589844 0-5.429687 2.199219-10.347656 5.757813-13.898437 3.5625-3.5625 8.472656-5.761719 13.902344-5.761719h20.800781c35.6875 0 64.71875-29.007813 64.71875-64.660156v-265.289063c0-35.660156-29.03125-64.660156-64.71875-64.660156zm34.71875 329.949219c0 19.109375-15.570312 34.660156-34.71875 34.660156h-382.5625c-19.148438 0-34.71875-15.550781-34.71875-34.660156v-265.289063c0-19.109375 15.570312-34.660156 34.71875-34.660156h112.691406c0 19.519531 15.878906 35.398438 35.410156 35.398438h86.359376c19.53125 0 35.410156-15.878907 35.410156-35.398438h112.691406c19.148438 0 34.71875 15.550781 34.71875 34.660156zm0 0" fill="#0085a9"/><path d="m512 64.660156v265.289063c0 35.652343-29.03125 64.660156-64.71875 64.660156h-20.800781c-5.429688 0-10.339844 2.199219-13.902344 5.761719-3.558594 3.550781-5.757813 8.46875-5.757813 13.898437 0 24.070313-19.511718 43.589844-43.589843 43.589844h-107.230469v-93.25h191.28125c19.148438 0 34.71875-15.550781 34.71875-34.660156v-265.289063c0-19.109375-15.570312-34.660156-34.71875-34.660156h-112.691406c0 19.519531-15.878906 35.398438-35.410156 35.398438h-43.179688v-65.398438h191.28125c35.6875 0 64.71875 29 64.71875 64.660156zm0 0" fill="#00608d"/><path d="m512 420.5c0 30.101562-24.429688 54.5-54.570312 54.5h-402.859376c-15.070312 0-28.710937-6.101562-38.589843-15.960938-9.871094-9.859374-15.980469-23.488281-15.980469-38.539062 0-14.300781 11.601562-25.878906 25.898438-25.878906h125.5c2.660156 0 5.070312 1.078125 6.8125 2.808594 1.738281 1.742187 2.820312 4.148437 2.820312 6.800781 0 12.328125 10 22.328125 22.347656 22.328125h145.242188c12.347656 0 22.347656-10 22.347656-22.328125 0-5.308594 4.3125-9.609375 9.632812-9.609375h125.5c7.148438 0 13.617188 2.898437 18.308594 7.578125 4.691406 4.679687 7.589844 11.152343 7.589844 18.300781zm0 0" fill="#2999ff"/><path d="m512 420.5c0 30.101562-24.429688 54.5-54.570312 54.5h-201.429688v-48.441406h72.621094c12.347656 0 22.347656-10 22.347656-22.328125 0-5.308594 4.3125-9.609375 9.632812-9.609375h125.5c7.148438 0 13.617188 2.898437 18.308594 7.578125 4.691406 4.679687 7.589844 11.152343 7.589844 18.300781zm0 0" fill="#3e7eff"/><path d="m451.789062 112.25v206.359375c0 8.878906-7.230468 16.109375-16.109374 16.109375h-359.359376c-8.882812 0-16.109374-7.230469-16.109374-16.109375v-206.359375c0-8.878906 7.226562-16.109375 16.109374-16.109375h359.359376c8.878906 0 16.109374 7.230469 16.109374 16.109375zm0 0" fill="#ffc837"/><path d="m451.789062 112.25v206.359375c0 8.878906-7.230468 16.109375-16.109374 16.109375h-179.679688v-238.578125h179.679688c8.878906 0 16.109374 7.230469 16.109374 16.109375zm0 0" fill="#fbb13e"/><path d="m256 156.671875c-22.671875 0-41.109375 18.4375-41.109375 41.117187v40.28125c0 22.667969 18.4375 41.121094 41.109375 41.121094 22.667969 0 41.117188-18.453125 41.117188-41.121094v-40.28125c0-22.679687-18.449219-41.117187-41.117188-41.117187zm11.117188 81.398437c0 6.128907-4.988282 11.121094-11.117188 11.121094-6.132812 0-11.109375-4.992187-11.109375-11.121094v-40.28125c0-6.128906 4.976563-11.117187 11.109375-11.117187 6.128906 0 11.117188 4.988281 11.117188 11.117187zm0 0" fill="#fff"/><path d="m184.21875 156.671875c-8.285156 0-15 6.714844-15 15v37.230469h-22.230469v-37.230469c0-8.285156-6.71875-15-15-15-8.285156 0-15 6.714844-15 15v38.5625c0 15.808594 12.859375 28.667969 28.664063 28.667969h23.566406v25.289062c0 8.28125 6.714844 15 15 15s15-6.71875 15-15v-92.519531c0-8.285156-6.71875-15-15-15zm0 0" fill="#fff"/><g fill="#fff5ea"><path d="m380.011719 156.671875c-8.285157 0-15 6.714844-15 15v37.230469h-22.230469v-37.230469c0-8.285156-6.71875-15-15-15-8.285156 0-15 6.714844-15 15v38.5625c0 15.808594 12.859375 28.667969 28.664062 28.667969h23.566407v25.289062c0 8.28125 6.714843 15 15 15 8.28125 0 15-6.71875 15-15v-92.519531c0-8.285156-6.714844-15-15-15zm0 0"/><path d="m297.117188 197.789062v40.28125c0 22.667969-18.449219 41.121094-41.117188 41.121094v-30c6.128906 0 11.117188-4.992187 11.117188-11.121094v-40.28125c0-6.128906-4.988282-11.117187-11.117188-11.117187v-30c22.667969 0 41.117188 18.4375 41.117188 41.117187zm0 0"/></g></svg>